**ABCDEFGHIJKLMNOPQRSTUVWXYZabcdefghijklmnopqrstuvwxyz**************************
**PARASOLID !"#$%&'()*+,-./:;<=>?@[\]^_`{|}~0123456789**************************
**PART1;
MC=AMD64;
MC_MODEL=Intel64 Family 6 Model 60 Stepping 3, GenuineIntel;
MC_ID=unknown;
OS=Windows_NT;
OS_RELEASE=unknown;
FRU=Parasolid Version 24.1, build 244, 10- 9-2012;
APPL=SolidWorks 2013-2013017;
SITE=;
USER=unknown;
FORMAT=text;
GUISE=transmit;
KEY=body;
FILE=body.x_t;
DATE=Sun Jul 17 15:54:55 2016;
**PART2;
SCH=SCH_2401244_20000;
USFLD_SIZE=0;
**PART3;
**END_OF_HEADER*****************************************************************
T51 : TRANSMIT FILE created by modeller version 240124423 SCH_2401244_20000_1300
6189 0 10 255 1 7 2 3 0 0 0 0 0 1e3 1e-8 0 0 0 1 0 1 4 81 255 2 2 7 5 1 0 0 0 0
 0 0 70 11 CI9 list_type0 0 1 uI10 notransmit0 0 1 lCCCDCCDI12 finger_index0 0 1
 dI12 finger_block1012 0 CZ3 0 4 T1 0 0 1 20 1 6 6 11 255 4 5 0 1 7 8 1 9 0 0 0
 12 27 CCCCCCCCCCCCCCCCCCCCCCCA16 index_map_offset0 0 1 dA9 index_map82 0 A17 no
de_id_index_map82 0 A20 schema_embedding_map82 0 Z7 1045 10 11 0 0 0 0 1e3 1e-8
 4 12 0 1 0 1 1 13 14 15 16 17 18 19 0 0 0 0 100 255 8 6 4 0 0 1 0 0 0 1 0 0 0 1
 0 0 0 1 0 ?11 9 3 0 1 12 20 1 21 4 0 0 12 12 318 22 23 0 0 0 0 1e3 1e-8 9 24 7
 1 0 1 1 25 26 27 28 29 30 31 0 0 0 0 100 20 4 9 0 0 1 0 0 0 1 0 0 0 1 0 0 0 1 0
 ?11 21 1 0 1 24 32 1 0 9 0 0 12 24 318 33 34 0 0 0 0 1e3 1e-8 21 35 12 1 0 1 1
 36 37 38 39 40 41 42 0 0 0 0 100 32 2 21 0 0 1 0 0 0 1 0 0 0 1 0 0 0 1 0 ?81 1
 33 318 43 24 0 0 0 0 0 70 34 0 4 T24 0 0 3 20 1 44 44 13 255 36 194 0 24 0 45 0
 0 46 0 51 255 37 193 0 47 48 0 0 -.015 -.1277 .0175 -1 0 0 .002 0 0 1 30 255 38
 185 0 41 49 0 0 +.015 -.1312 .0274 -1 0 0 29 255 39 150 0 50 51 0 .014 -.1062 .
0274 19 255 40 55 0 24 46 0 52 V16 255 41 157 0 ?53 0 54 38 0 0 24 18 255 42 50
 0 55 0 56 57 ?24 17 255 55 0 58 59 60 42 61 62 0 63 -18 56 47 0 64 42 65 66 ?24
 29 57 52 0 42 66 67 .015 -.1062 .0274 29 66 49 0 56 68 57 .015 -.1062 -.0274 29
 67 153 0 69 57 70 .014 -.1312 .0274 18 69 140 0 53 71 0 67 ?24 29 70 152 0 71 6
7 51 .014 -.1312 -.0274 18 71 139 0 72 73 69 70 ?24 29 51 151 0 73 70 39 .014 -.
1062 -.0274 18 73 138 0 74 50 71 51 ?24 17 74 0 58 60 59 73 64 75 0 76 +18 50 13
7 0 61 77 73 39 ?24 17 61 0 78 79 63 50 55 62 0 80 +18 77 41 0 81 65 50 82 ?24 1
7 81 0 78 63 79 77 53 41 0 83 -18 65 44 0 84 56 77 68 ?24 29 82 43 0 77 0 68 .01
5 -.1312 .0274 29 68 46 0 65 82 66 .015 -.1312 -.0274 17 84 0 85 86 87 65 72 54
 0 88 -15 255 85 162 0 87 89 0 17 86 0 85 53 84 77 88 90 0 0 +17 87 0 85 84 53 7
1 91 92 0 93 -17 72 0 94 76 95 71 84 54 0 87 +16 54 156 0 ?72 41 75 49 0 0 24 17
 88 0 96 97 83 65 86 90 0 95 -15 96 8 0 83 98 0 17 97 0 96 99 88 56 95 100 0 59
 -17 83 0 96 88 99 77 63 101 0 86 -16 90 29 0 ?86 100 101 102 0 0 24 17 95 0 94
 72 64 65 97 100 0 0 +15 94 160 0 76 103 0 17 64 0 94 95 76 56 74 75 0 97 -16 10
0 33 0 ?95 104 90 105 0 0 24 16 104 37 0 ?59 62 100 106 0 0 24 30 105 34 0 100 1
02 106 0 +.015 380251385934116e-32 -.0274 0 -1 -1387778780781444e-31 30 102 30 0
 90 107 105 0 +.015 -.1312 0 0 0 1 30 106 38 0 104 105 108 0 +.015 -.1062 268945
4498521705e-32 0 -2532443030623075e-31 -1 31 255 108 149 0 109 106 110 0 +.014 -
.1277 .0175 1 0 0 0 0 -1 .002 16 109 132 0 ?111 112 0 108 0 0 24 31 110 148 0 11
2 108 113 0 +.014 -.1097 -.0175 1 0 0 0 0 -1 .002 16 112 127 0 ?114 115 109 110
 0 0 24 31 113 147 0 115 110 116 0 +.014 -.1097 .0175 1 0 0 0 0 -1 .002 16 115 1
22 0 ?117 118 112 113 0 0 24 31 116 146 0 118 113 119 0 +.014 -.1277 -.0175 1 0
 0 0 0 -1 .002 16 118 117 0 ?120 121 115 116 0 0 24 30 119 145 0 121 116 122 0 +
.014 0 .0274 0 1 0 16 121 112 0 ?80 92 118 119 0 0 24 30 122 144 0 92 119 123 0
 +.014 -.1312 0 0 0 1 16 92 107 0 ?91 124 121 122 0 0 24 30 123 143 0 124 122 12
5 0 +.014 380251385934116e-32 -.0274 0 -1 -1387778780781444e-31 16 124 102 0 ?93
 126 92 123 0 0 24 30 125 142 0 126 123 127 0 +.014 -.1062 2689454498521705e-32
 0 -2532443030623075e-31 -1 16 126 97 0 ?128 129 124 125 0 0 24 30 127 182 0 62
 125 130 0 +.015 -.1062 .0274 -1 0 0 16 62 154 0 ?61 75 104 127 0 0 24 30 130 18
3 0 75 127 49 0 +.015 -.1062 -.0274 -1 0 0 16 75 155 0 ?74 54 62 130 0 0 24 30 4
9 184 0 54 130 38 0 +.015 -.1312 -.0274 -1 0 0 17 128 0 131 93 80 73 60 126 0 0
 +16 129 9 0 ?132 133 126 134 0 0 24 17 132 0 135 132 132 0 136 129 0 0 +16 133
 13 0 ?137 138 129 139 0 0 24 31 134 10 0 129 0 139 0 +.015 -.1277 .0175 1 0 0 0
 0 -1 .002 31 139 14 0 133 134 140 0 +.015 -.1097 -.0175 1 0 0 0 0 -1 .002 31 14
0 18 0 138 139 141 0 +.015 -.1097 .0175 1 0 0 0 0 -1 .002 16 138 17 0 ?142 143 1
33 140 0 0 24 31 141 22 0 143 140 107 0 +.015 -.1277 -.0175 1 0 0 0 0 -1 .002 16
 143 21 0 ?144 101 138 141 0 0 24 30 107 26 0 101 141 102 0 +.015 0 .0274 0 1 0
 16 101 25 0 ?63 90 143 107 0 0 24 17 63 0 78 61 81 42 83 101 0 99 +15 78 164 0
 79 45 0 17 99 0 96 83 97 42 59 104 0 0 -17 59 0 58 74 55 56 99 104 0 0 +15 58 1
58 0 60 145 0 17 60 0 58 55 74 50 128 126 0 0 -14 255 145 159 146 ?98 47 58 36 1
47 +0 0 98 47 52 81 1 146 308 148 145 149 0 0 150 151 14 98 1 150 ?152 145 153 3
6 154 +0 0 152 145 52 14 47 179 155 ?145 156 135 36 37 +0 0 145 156 52 50 255 14
7 186 0 145 157 158 0 +.015 -.1062 2689454498521705e-32 0 1 -2532443030623075e-3
1 0 2532443030623075e-31 1 13 52 56 0 0 0 0 0 0 40 45 14 45 165 159 ?89 0 78 36
 160 +0 0 89 0 52 81 1 159 311 148 45 161 0 155 162 163 14 89 163 162 ?103 45 85
 36 164 +0 0 103 45 52 50 160 189 0 45 164 165 0 +.015 0 .0274 0 0 1 1 0 0 50 16
4 188 0 89 158 160 0 +.015 -.1312 0 0 -1 0 0 0 -1 51 165 190 0 166 160 167 0 -.0
15 -.1277 -.0175 -1 0 0 .002 0 0 1 14 166 167 168 ?169 103 170 36 165 +0 0 169 1
03 52 51 167 191 0 169 165 48 0 -.015 -.1097 .0175 -1 0 0 .002 0 0 1 14 169 171
 171 ?156 166 172 36 167 +0 0 156 166 52 51 48 192 0 156 167 37 0 -.015 -.1097 -
.0175 -1 0 0 .002 0 0 1 14 156 175 173 ?47 169 174 36 48 +0 0 47 169 52 81 1 173
 315 148 156 175 0 171 176 177 15 174 174 0 137 156 178 17 137 0 174 137 137 0 1
79 133 0 0 +15 178 176 0 180 156 0 17 180 0 178 180 180 0 114 112 0 0 -17 114 0
 181 114 114 0 180 112 0 0 +15 181 93 0 114 152 182 14 152 90 176 ?0 98 183 36 1
57 -0 0 0 98 52 15 182 94 0 117 152 184 17 117 0 182 117 117 0 185 115 0 0 +15 1
84 95 0 120 152 131 17 120 0 184 120 120 0 186 118 0 0 +15 131 96 0 80 152 0 17
 80 0 131 128 91 50 79 121 0 60 +17 91 0 131 80 93 69 87 92 0 0 +17 79 0 78 81 6
1 69 80 121 0 91 -17 93 0 131 91 128 71 76 124 0 0 +17 76 0 94 64 72 73 93 124 0
 128 -17 186 0 187 186 186 0 120 118 0 0 -15 187 168 0 186 166 0 17 185 0 188 18
5 185 0 117 115 0 0 -15 188 172 0 185 169 0 81 1 176 316 148 152 189 0 173 190 1
91 15 183 92 0 111 152 181 50 157 141 0 152 154 147 0 +.014 0 0 1 0 0 0 0 -1 50
 154 2 0 98 0 157 0 +.015 0 0 1 0 0 0 0 -1 17 111 0 183 111 111 0 192 109 0 0 +1
7 192 0 193 192 192 0 111 109 0 0 -15 193 180 0 192 47 0 80 255 1 148 194 195 90
00 1 1 1 1 1 1 1 1 0 FFFFTFTFFFFFFF1 81 1 189 285 196 152 0 176 197 0 198 81 1 1
90 317 148 103 199 0 176 0 200 82 255 1 191 -1039073169 14 103 161 190 ?166 89 9
4 36 158 +0 0 166 89 52 81 1 199 278 196 103 0 190 201 202 203 82 1 200 -1033174
929 80 1 196 0 204 8001 0 0 0 0 3 5 0 0 0 FFFFTFTFFFFFFF2 81 1 201 277 196 89 0
 162 161 199 205 81 1 202 279 196 166 0 168 199 206 207 83 255 3 203 .7921568627
45098 .819607843137255 .933333333333333 81 1 168 313 148 166 202 0 162 171 208 8
1 1 206 280 196 169 0 171 202 175 209 83 3 207 .792156862745098 .819607843137255
 .933333333333333 81 1 171 314 148 169 206 0 168 173 210 81 1 175 281 196 156 0
 173 206 211 212 83 3 209 .792156862745098 .819607843137255 .933333333333333 81
 1 211 282 196 47 0 155 175 149 213 83 3 212 .792156862745098 .819607843137255 .
933333333333333 81 1 155 310 148 47 211 0 150 159 214 81 1 149 283 196 145 0 146
 211 197 215 83 3 213 .792156862745098 .819607843137255 .933333333333333 81 1 19
7 284 196 98 0 150 149 189 216 83 3 215 .792156862745098 .819607843137255 .93333
3333333333 81 1 150 309 148 98 197 0 146 155 217 83 3 216 .792156862745098 .8196
07843137255 .933333333333333 82 1 217 -1046282129 82 1 214 -1031995281 82 1 210
 -1032519569 81 1 162 312 148 89 201 0 159 168 218 82 1 208 -1032781713 82 1 218
 -1033043857 81 1 161 276 196 45 0 159 0 201 219 83 3 205 .792156862745098 .8196
07843137255 .933333333333333 83 3 219 .792156862745098 .819607843137255 .9333333
33333333 79 255 15 204 SDL/TYSA_COLOUR50 158 187 0 103 147 164 0 +.015 380251385
934116e-32 -.0274 0 1387778780781444e-31 -1 0 1 1387778780781444e-31 83 3 198 .7
92156862745098 .819607843137255 .933333333333333 79 14 195 SWEntUnchanged17 179
 0 220 179 179 0 137 133 0 0 -15 220 5 0 179 98 221 15 221 6 0 222 98 223 17 222
 0 221 222 222 0 142 138 0 0 -15 223 7 0 224 98 96 17 224 0 223 224 224 0 144 14
3 0 0 -17 144 0 170 144 144 0 224 143 0 0 +15 170 166 0 144 166 187 17 142 0 172
 142 142 0 222 138 0 0 +15 172 170 0 142 169 188 82 1 177 -1032257425 82 1 163 -
1032912785 15 135 178 0 132 47 193 15 153 4 0 136 98 220 17 136 0 153 136 136 0
 132 129 0 0 -82 1 151 -1033306001 17 53 0 85 87 86 69 81 41 0 79 +19 46 195 0 2
4 0 40 36 S74 4 CI16 index_map_offset0 0 1 dCCZ20 44 3 0 0 190 189 33 0 0 0 0 0
 0 0 0 0 0 0 0 0 0 0 0 0 80 1 43 225 226 8017 0 0 0 0 0 0 0 0 0 TTTTTTTTTTTTTF3
 79 13 226 SDL/TYSA_NAME81 1 22 318 43 12 0 0 0 0 0 70 23 0 4 T12 0 0 3 20 1 227
 227 13 25 194 0 12 0 228 0 0 229 0 51 26 193 0 230 231 0 0 +-.015 -.1277 .0175
 1 0 0 .002 0 0 -1 30 27 185 0 232 233 0 0 +-.015 -.1312 .0274 1 0 0 29 28 150 0
 234 235 0 -.014 -.1062 .0274 19 29 55 0 12 229 0 236 V16 30 154 0 ?237 0 238 23
9 0 0 12 18 31 50 0 240 0 241 242 ?12 17 240 0 243 237 244 31 245 246 0 247 -18
 241 47 0 245 31 248 249 ?12 29 242 52 0 31 249 250 -.015 -.1062 .0274 29 249 49
 0 241 251 242 -.015 -.1062 -.0274 29 250 153 0 252 242 253 -.014 -.1312 .0274 1
8 252 140 0 254 255 0 250 ?12 29 253 152 0 255 250 235 -.014 -.1312 -.0274 18 25
5 139 0 256 257 252 253 ?12 29 235 151 0 257 253 28 -.014 -.1062 -.0274 18 257 1
38 0 258 234 255 235 ?12 17 258 0 243 244 237 257 259 260 0 261 +18 234 137 0 25
9 262 257 28 ?12 17 259 0 263 264 265 234 258 260 0 237 -18 262 41 0 266 248 234
 267 ?12 17 266 0 268 247 269 262 270 271 0 272 +18 248 44 0 269 241 262 251 ?12
 29 267 43 0 262 0 251 -.015 -.1312 .0274 29 251 46 0 248 267 249 -.015 -.1312 -
.0274 17 269 0 268 266 245 248 273 274 0 275 +15 268 8 0 247 276 0 17 245 0 268
 269 247 241 240 246 0 244 +17 273 0 277 261 275 241 269 274 0 0 -16 274 33 0 ?2
69 246 271 278 0 0 12 17 275 0 277 273 256 248 279 280 0 270 -15 277 160 0 256 2
81 0 17 256 0 277 275 261 255 265 282 0 279 +17 279 0 283 254 270 255 275 280 0
 284 +16 280 156 0 ?279 238 232 233 0 0 12 17 270 0 283 279 272 248 266 271 0 0
 -15 283 162 0 254 285 0 17 272 0 283 270 254 262 286 232 0 287 -16 271 29 0 ?26
6 274 288 289 0 0 12 16 288 25 0 ?247 271 290 291 0 0 12 30 289 30 0 271 291 278
 0 +-.015 -.1312 0 0 0 1 30 291 26 0 288 292 289 0 +-.015 0 .0274 0 1 0 30 278 3
4 0 274 289 293 0 +-.015 380251385934116e-32 -.0274 0 -1 -1387778780781444e-31 3
0 293 38 0 246 278 294 0 +-.015 -.1062 2689454498521705e-32 0 -2532443030623075e
-31 -1 16 246 37 0 ?245 232 274 293 0 0 12 31 294 149 0 295 293 296 0 +-.014 -.1
277 .0175 1 0 0 0 0 -1 .002 16 295 132 0 ?297 298 0 294 0 0 12 31 296 148 0 298
 294 299 0 +-.014 -.1097 -.0175 1 0 0 0 0 -1 .002 16 298 127 0 ?300 301 295 296
 0 0 12 31 299 147 0 301 296 302 0 +-.014 -.1097 .0175 1 0 0 0 0 -1 .002 16 301
 122 0 ?303 304 298 299 0 0 12 31 302 146 0 304 299 305 0 +-.014 -.1277 -.0175 1
 0 0 0 0 -1 .002 16 304 117 0 ?306 307 301 302 0 0 12 30 305 145 0 307 302 308 0
 +-.014 0 .0274 0 1 0 16 307 112 0 ?309 310 304 305 0 0 12 30 308 144 0 310 305
 311 0 +-.014 -.1312 0 0 0 1 16 310 107 0 ?254 282 307 308 0 0 12 30 311 143 0 2
82 308 312 0 +-.014 380251385934116e-32 -.0274 0 -1 -1387778780781444e-31 16 282
 102 0 ?256 260 310 311 0 0 12 30 312 142 0 260 311 239 0 +-.014 -.1062 26894544
98521705e-32 0 -2532443030623075e-31 -1 16 260 97 0 ?258 313 282 312 0 0 12 30 2
39 182 0 30 312 314 0 +-.015 -.1062 .0274 1 0 0 30 314 183 0 238 239 233 0 +-.01
5 -.1062 -.0274 1 0 0 16 238 155 0 ?261 30 280 314 0 0 12 30 233 184 0 280 314 2
7 0 +-.015 -.1312 -.0274 1 0 0 17 261 0 277 256 273 257 244 238 0 265 +17 244 0
 243 240 258 241 261 238 0 273 -17 265 0 263 259 284 257 256 282 0 0 -15 263 96
 0 264 315 0 17 284 0 263 265 264 255 254 310 0 0 -17 264 0 263 284 259 252 309
 307 0 0 -17 254 0 283 272 279 252 284 310 0 286 +17 286 0 316 309 287 252 272 2
32 0 264 +15 316 164 0 309 228 0 17 309 0 316 317 286 234 264 307 0 0 +17 287 0
 316 286 317 262 247 288 0 0 -16 232 157 0 ?286 280 246 27 0 0 12 17 317 0 316 2
87 309 31 237 30 0 0 -17 247 0 268 245 266 31 287 288 0 317 +17 237 0 243 258 24
0 234 317 30 0 309 +15 243 158 0 258 318 0 14 318 159 319 ?281 228 243 25 320 -0
 0 281 228 236 81 1 319 308 148 318 321 0 0 322 323 14 281 161 322 ?324 318 277
 25 325 -0 0 324 318 236 14 228 165 326 ?318 0 316 25 327 -0 0 318 0 236 50 320
 186 0 318 328 325 0 +-.015 -.1062 2689454498521705e-32 0 -1 2532443030623075e-3
1 0 -2532443030623075e-31 -1 13 236 56 0 0 0 0 0 0 29 228 50 328 141 0 315 329 3
20 0 +-.014 0 0 1 0 0 0 0 -1 50 325 187 0 281 320 330 0 +-.015 380251385934116e-
32 -.0274 0 -1387778780781444e-31 1 0 -1 -1387778780781444e-31 50 330 188 0 285
 325 327 0 +-.015 -.1312 0 0 1 0 0 0 1 14 285 163 331 ?276 230 283 25 330 -0 0 2
76 230 236 50 327 189 0 228 330 332 0 +-.015 0 .0274 0 0 -1 -1 0 0 51 332 190 0
 324 327 333 0 +-.015 -.1277 -.0175 1 0 0 .002 0 0 -1 14 324 167 334 ?335 281 33
6 25 332 -0 0 335 281 236 51 333 191 0 335 332 231 0 +-.015 -.1097 .0175 1 0 0 .
002 0 0 -1 14 335 171 337 ?338 324 339 25 333 -0 0 338 324 236 51 231 192 0 338
 333 26 0 +-.015 -.1097 -.0175 1 0 0 .002 0 0 -1 14 338 175 340 ?230 335 341 25
 231 -0 0 230 335 236 81 1 340 314 148 338 342 0 337 343 344 14 230 179 343 ?285
 338 345 25 26 -0 0 285 338 236 15 341 174 0 346 338 347 17 346 0 341 346 346 0
 348 349 0 0 -15 347 176 0 300 338 0 17 300 0 347 300 300 0 350 298 0 0 +17 350
 0 351 350 350 0 300 298 0 0 -15 351 93 0 350 315 352 14 315 90 353 ?0 276 354 2
5 328 +0 0 0 276 236 15 352 94 0 355 315 356 17 355 0 352 355 355 0 303 301 0 0
 -15 356 95 0 357 315 263 17 357 0 356 357 357 0 306 304 0 0 -17 306 0 358 306 3
06 0 357 304 0 0 +15 358 168 0 306 324 0 17 303 0 359 303 303 0 355 301 0 0 +15
 359 172 0 303 335 0 81 1 353 316 148 315 360 0 343 361 362 14 276 1 361 ?315 28
5 363 25 329 -0 0 315 285 236 15 354 92 0 364 315 351 17 364 0 354 364 364 0 297
 295 0 0 -17 297 0 365 297 297 0 364 295 0 0 +15 365 180 0 297 230 0 81 1 361 31
7 148 276 366 0 353 0 367 15 363 4 0 368 276 369 50 329 2 0 276 0 328 0 +-.015 0
 0 1 0 0 0 0 -1 17 368 0 363 368 368 0 370 313 0 0 +15 369 5 0 348 276 371 17 34
8 0 369 348 348 0 346 349 0 0 +15 371 6 0 372 276 373 17 372 0 371 372 372 0 374
 375 0 0 +15 373 7 0 376 276 268 17 376 0 373 376 376 0 377 290 0 0 +17 377 0 33
6 377 377 0 376 290 0 0 -16 290 21 0 ?376 288 375 292 0 0 12 16 375 17 0 ?372 29
0 349 378 0 0 12 31 292 22 0 290 378 291 0 +-.015 -.1277 -.0175 1 0 0 0 0 -1 .00
2 31 378 18 0 375 379 292 0 +-.015 -.1097 .0175 1 0 0 0 0 -1 .002 31 379 14 0 34
9 380 378 0 +-.015 -.1097 -.0175 1 0 0 0 0 -1 .002 16 349 13 0 ?348 375 313 379
 0 0 12 31 380 10 0 313 0 379 0 +-.015 -.1277 .0175 1 0 0 0 0 -1 .002 16 313 9 0
 ?368 349 260 380 0 0 12 15 336 166 0 377 324 358 17 374 0 339 374 374 0 372 375
 0 0 -15 339 170 0 374 335 359 17 370 0 345 370 370 0 368 313 0 0 -15 345 178 0
 370 230 365 81 1 366 284 196 276 0 361 381 360 382 82 1 367 -1011220368 81 1 38
1 283 196 285 0 331 383 366 384 81 1 360 285 196 315 0 353 366 0 385 83 3 382 .7
92156862745098 .819607843137255 .933333333333333 83 3 385 .792156862745098 .8196
07843137255 .933333333333333 81 1 331 311 148 285 381 0 326 334 386 81 1 383 282
 196 230 0 343 342 381 387 83 3 384 .792156862745098 .819607843137255 .933333333
333333 81 1 343 315 148 230 383 0 340 353 388 81 1 342 281 196 338 0 340 389 383
 390 83 3 387 .792156862745098 .819607843137255 .933333333333333 81 1 389 280 19
6 335 0 337 391 342 392 83 3 390 .792156862745098 .819607843137255 .933333333333
333 81 1 337 313 148 335 389 0 334 340 393 81 1 391 279 196 324 0 334 394 389 39
5 83 3 392 .792156862745098 .819607843137255 .933333333333333 81 1 334 312 148 3
24 391 0 331 337 396 81 1 394 278 196 281 0 322 321 391 397 83 3 395 .7921568627
45098 .819607843137255 .933333333333333 81 1 322 309 148 281 394 0 319 326 398 8
1 1 321 277 196 318 0 319 399 394 400 83 3 397 .792156862745098 .819607843137255
 .933333333333333 81 1 399 276 196 228 0 326 0 321 401 83 3 400 .792156862745098
 .819607843137255 .933333333333333 81 1 326 310 148 228 399 0 322 331 402 83 3 4
01 .792156862745098 .819607843137255 .933333333333333 82 1 402 -997457808 82 1 3
98 -997982096 82 1 396 -997195664 82 1 393 -996802448 82 1 388 -996016016 82 1 3
86 -997719952 82 1 362 -1004011408 82 1 344 -996409232 82 1 323 -998244240 19 22
9 195 0 12 0 29 25 S74 20 227 3 0 0 361 360 22 0 0 0 0 0 0 0 0 0 0 0 0 0 0 0 0 0
 81 1 10 1045 43 7 0 0 0 0 0 70 11 0 4 T7 0 0 3 20 1 403 403 13 13 94 0 7 0 404
 0 0 405 0 50 14 93 0 406 407 0 0 +.031 .214 -.0285 -1 0 1217349807703022e-31 12
17349807703022e-31 0 1 31 15 823 0 408 409 0 0 +-.03 0 365204942310907e-32 1 0 -
1261617073437678e-31 -1261617073437678e-31 0 -1 .015 29 16 595 0 19 410 0 -.03 -
.214 .00781024967590666 19 17 28 0 7 405 0 411 V16 18 622 0 ?412 0 413 414 413 4
15 7 18 19 593 0 416 0 417 16 ?7 17 416 0 418 419 420 19 421 422 0 423 -18 417 5
87 0 424 19 425 410 ?7 17 424 0 418 426 427 417 428 429 0 430 -18 425 581 0 431
 417 432 433 ?7 29 410 589 0 417 433 16 -.0143090880212542 -.214 -.0275 29 433 5
83 0 425 434 410 .03 -.214 -.00781024967590666 29 434 559 0 432 435 433 -.012196
31091765046 -.214 .0285 18 432 557 0 436 425 437 434 ?7 29 435 333 0 437 438 434
 .01430908802125418 .214 -.0275 18 437 331 0 439 432 440 435 ?7 29 438 327 0 440
 441 435 -.03 .214 -.00781024967590665 18 440 325 0 442 437 443 438 ?7 29 441 32
4 0 443 444 438 .0143090880212542 .214 .0275 18 443 322 0 445 440 446 441 ?7 29
 444 321 0 446 447 441 -.01430908802125418 .214 .0275 18 446 319 0 448 443 449 4
44 ?7 29 447 315 0 449 450 444 .03 .214 .00781024967590665 18 449 313 0 451 446
 452 447 ?7 29 450 312 0 452 453 447 .01219631091765046 .214 .0285 18 452 310 0
 454 449 455 450 ?7 29 453 306 0 455 456 450 -.031 .214 377378440387937e-32 18 4
55 304 0 457 452 458 453 ?7 29 456 303 0 458 459 453 -.01219631091765046 .214 -.
0285 18 458 301 0 460 455 461 456 ?7 29 459 300 0 461 462 456 .01219631091765046
 .214 -.0285 18 461 298 0 463 458 464 459 ?7 29 462 297 0 464 465 459 .031 .214
 -377378440387937e-32 18 464 295 0 466 461 467 462 ?7 29 465 129 0 467 468 462 -
.03 .214 .0275 18 467 127 0 469 464 470 465 ?7 29 468 112 0 470 471 465 .03 -.21
4 .0275 18 470 110 0 472 467 473 468 ?7 29 471 70 0 474 475 468 .031 -.214 .0285
 18 474 61 0 476 477 478 471 ?7 29 475 71 0 478 479 471 -.031 -.214 .0285 18 478
 62 0 480 474 481 475 ?7 29 479 72 0 481 482 475 -.031 -.214 -.0285 18 481 63 0
 483 478 484 479 ?7 29 482 73 0 484 485 479 .031 -.214 -.0285 18 484 64 0 486 48
1 487 482 ?7 29 485 27 0 473 488 482 .031 .214 .0285 18 473 25 0 489 470 490 485
 ?7 29 488 24 0 490 491 485 -.031 .214 .0285 18 490 22 0 492 473 493 488 ?7 29 4
91 21 0 493 494 488 -.031 .214 -.0285 18 493 19 0 495 490 477 491 ?7 29 494 18 0
 477 496 491 .031 .214 -.0285 18 477 16 0 497 493 474 494 ?7 29 496 227 0 498 49
9 494 -.03 -.214 .0275 18 498 178 0 500 501 502 496 ?7 29 499 228 0 502 503 496
 -.03 -.214 -.0275 18 502 176 0 504 498 505 499 ?7 29 503 229 0 505 506 499 .03
 -.214 -.0275 18 505 183 0 507 502 508 503 ?7 29 506 230 0 487 509 503 .03 .214
 .0275 18 487 182 0 510 484 511 506 ?7 29 509 232 0 511 512 506 -.03 .214 -.0275
 18 511 180 0 513 487 501 509 ?7 29 512 233 0 501 514 509 .03 .214 -.0275 18 501
 177 0 515 511 498 512 ?7 29 514 491 0 508 516 512 -.01219631091765046 .214 .028
5 18 508 435 0 517 505 518 514 ?7 29 516 493 0 518 519 514 -.03 .214 .0078102496
7590666 18 518 437 0 520 508 521 516 ?7 29 519 496 0 521 522 516 -.0143090880212
542 .214 -.0275 18 521 440 0 523 518 524 519 ?7 29 522 500 0 524 525 519 .03 .21
4 -.00781024967590666 18 524 433 0 526 521 527 522 ?7 29 525 751 0 527 528 522 -
.01430908802125418 -.214 .0275 18 527 693 0 420 524 529 525 ?7 29 528 753 0 529
 530 525 -.031 -.214 377378440387937e-32 18 529 698 0 419 527 531 528 ?7 29 530
 754 0 531 532 528 -.03 -.214 -.00781024967590665 18 531 697 0 427 529 533 530 ?
7 29 532 756 0 533 534 530 -.01219631091765046 -.214 -.0285 18 533 695 0 426 531
 535 532 ?7 29 534 757 0 535 536 532 .01219631091765046 -.214 -.0285 18 535 691
 0 537 533 538 534 ?7 29 536 758 0 538 539 534 .01430908802125418 -.214 -.0275 1
8 538 696 0 540 535 541 536 ?7 29 539 760 0 541 542 536 .031 -.214 -377378440387
937e-32 18 541 699 0 543 538 544 539 ?7 29 542 761 0 544 545 539 .03 -.214 .0078
1024967590665 18 544 694 0 546 541 547 542 ?7 29 545 762 0 547 548 542 .01430908
80212542 -.214 .0275 18 547 700 0 549 544 550 545 ?7 29 548 763 0 550 0 545 .012
19631091765046 -.214 .0285 18 550 692 0 551 547 0 548 ?7 17 551 0 552 553 553 55
0 436 554 0 555 +15 552 706 0 553 556 0 17 553 0 552 551 551 432 557 558 0 559 -
17 436 0 418 420 555 432 551 554 0 553 -16 554 633 0 ?551 422 560 414 422 561 7
 17 555 0 418 436 562 550 563 561 0 564 -15 418 726 0 555 565 0 17 562 0 418 555
 546 547 566 415 0 563 -17 563 0 567 472 564 547 555 561 0 568 +16 561 643 0 ?56
3 569 415 414 554 570 7 17 564 0 567 563 571 550 476 572 0 557 -15 567 618 0 564
 404 0 17 571 0 567 564 412 474 573 574 0 0 -17 476 0 575 576 557 474 564 572 0
 577 +16 572 561 0 ?476 558 578 579 558 580 7 17 557 0 575 476 581 550 553 558 0
 0 +15 575 78 0 581 582 0 17 581 0 575 557 583 432 584 580 0 0 +16 558 558 0 ?55
7 580 572 579 580 572 7 16 580 45 0 ?581 585 558 579 572 558 7 30 579 66 0 580 5
86 587 0 +.031 -.214 .0285 1 0 -111917643611407e-30 30 586 67 0 578 588 579 0 +-
.031 -.214 -.0285 1217349807703022e-31 0 1 30 587 86 0 589 579 590 0 +.031 .214
 .0285 0 -1 0 16 589 74 0 ?577 591 592 587 0 0 7 30 590 87 0 591 587 593 0 +-.03
1 .214 .0285 0 -1 0 16 591 75 0 ?583 594 589 590 0 0 7 30 593 88 0 594 590 409 0
 +-.031 .214 -.0285 0 -1 0 16 594 76 0 ?595 596 591 593 0 0 7 30 409 89 0 596 59
3 15 0 +.031 .214 -.0285 0 -1 0 16 596 77 0 ?597 598 594 409 0 0 7 17 597 0 599
 600 601 484 602 596 0 0 +16 598 337 0 ?603 604 596 605 606 604 7 17 603 0 607 6
08 609 508 448 598 0 0 +16 604 338 0 ?610 611 598 605 598 611 7 31 605 487 0 606
 612 613 0 +0 .214 0 0 1 0 0 0 1 .031 16 606 386 0 ?614 615 616 605 617 598 7 17
 614 0 607 618 608 443 454 606 0 0 +16 615 380 0 ?619 620 606 612 0 0 7 16 616 3
89 0 ?618 606 621 605 622 621 7 16 617 425 0 ?608 623 624 605 623 606 7 17 608 0
 607 614 603 452 625 617 0 0 +16 623 419 0 ?609 626 617 605 626 617 7 16 624 428
 0 ?627 617 628 629 0 0 7 17 627 0 630 627 627 0 631 624 0 0 +16 628 383 0 ?632
 624 569 633 0 0 7 31 629 490 0 624 414 633 0 +0 .215 0 0 1 0 0 0 1 .015 31 414
 746 0 561 634 629 0 +0 -.214 0 0 1 0 0 0 1 .031 31 633 489 0 628 629 612 0 +0 .
214 0 0 1 0 0 0 1 .015 31 612 488 0 615 633 605 0 +0 .215 0 0 1 0 0 0 1 .031 31
 634 747 0 569 635 414 0 +0 -.215 0 0 1 0 0 0 1 .031 16 569 665 0 ?636 628 561 6
34 0 0 7 31 635 748 0 637 638 634 0 +0 -.214 0 0 1 0 0 0 1 .015 16 637 687 0 ?63
9 560 640 635 0 0 7 31 638 749 0 560 641 635 0 +0 -.215 0 0 1 0 0 0 1 .015 16 56
0 668 0 ?642 554 637 638 0 0 7 31 641 882 0 640 643 638 0 +.03 0 -36520494231090
7e-32 -1 0 1261617073437678e-31 1261617073437678e-31 0 1 .015 16 640 849 0 ?644
 637 408 641 0 0 7 31 643 883 0 645 646 641 0 +.031 0 -377378440387937e-32 1 0 -
1217349807703022e-31 -1217349807703022e-31 0 -1 .015 16 645 853 0 ?647 648 0 643
 0 0 7 31 646 884 0 648 0 643 0 +-.031 0 377378440387937e-32 1 0 -12173498077030
22e-31 -1217349807703022e-31 0 -1 .015 16 648 850 0 ?649 408 645 646 0 0 7 17 64
9 0 650 649 649 0 651 648 0 0 +16 408 848 0 ?652 640 648 15 0 0 7 17 652 0 653 6
52 652 0 654 408 0 0 +15 653 869 0 652 655 656 17 654 0 657 654 654 0 652 408 0
 0 -15 657 822 0 654 658 659 14 658 192 660 ?661 662 657 13 663 +0 0 661 662 411
 15 659 195 0 664 658 0 17 664 0 659 665 666 502 667 668 0 0 -17 665 0 659 669 6
64 511 670 671 0 672 -17 666 0 659 664 673 531 423 674 0 667 -17 667 0 675 676 5
04 531 664 668 0 0 +16 668 156 0 ?667 677 674 678 679 674 7 16 677 576 0 ?472 68
0 668 681 680 682 7 16 674 591 0 ?423 668 679 678 668 679 7 30 678 219 0 668 683
 681 0 +-.03 -.214 -.0275 1261617073437678e-31 0 1 16 679 594 0 ?500 674 684 678
 674 668 7 17 500 0 685 686 687 498 673 679 0 688 +16 684 152 0 ?689 679 690 683
 691 690 7 17 689 0 692 693 507 538 694 684 0 0 +16 690 585 0 ?430 684 691 683 6
84 691 7 30 683 220 0 684 695 678 0 +.03 -.214 -.0275 -1 0 1156482317317872e-31
 16 691 588 0 ?504 690 696 683 690 684 7 17 504 0 675 667 697 502 698 691 0 670
 +16 696 148 0 ?699 691 700 695 620 700 7 17 699 0 567 412 472 544 701 696 0 0 +
16 700 579 0 ?702 696 620 695 696 620 7 30 695 221 0 696 703 683 0 +.03 -.214 -.
0275 -1261617073437678e-31 0 -1 16 620 582 0 ?507 700 615 695 700 696 7 17 507 0
 692 689 704 505 705 620 0 694 +15 692 608 0 706 707 0 17 704 0 692 507 706 425
 543 413 0 705 +17 705 0 708 709 710 425 507 620 0 0 -17 694 0 711 712 713 505 6
89 684 0 710 -15 711 191 0 694 662 0 17 712 0 711 714 694 501 710 715 0 716 -17
 713 0 711 694 698 538 430 690 0 689 -17 710 0 708 705 515 505 712 715 0 0 +15 7
08 187 0 701 717 0 17 515 0 708 710 526 501 718 719 0 712 +16 715 155 0 ?710 720
 671 721 0 0 7 16 720 555 0 ?486 574 715 722 574 574 7 16 671 159 0 ?670 715 723
 724 0 0 7 30 721 214 0 715 724 725 0 +.03 .214 -.0275 0 -1 0 30 724 215 0 671 7
26 721 0 +-.03 .214 -.0275 0 -1 0 30 725 5 0 727 721 728 0 +.031 .214 -.0285 -12
17349807703022e-31 0 -1 16 727 4 0 ?729 730 585 725 585 585 7 30 728 8 0 731 725
 732 0 +.031 .214 -.0285 -1 0 111917643611407e-30 16 731 7 0 ?733 734 735 728 73
0 735 7 30 732 11 0 736 728 737 0 +-.031 .214 -.0285 1217349807703022e-31 0 1 16
 736 10 0 ?738 739 734 732 734 734 7 30 737 14 0 592 732 722 0 +.031 .214 .0285
 1 0 -111917643611407e-30 16 592 13 0 ?517 589 740 737 739 740 7 30 722 69 0 574
 737 588 0 +.031 -.214 -.0285 -1217349807703022e-31 0 -1 16 574 57 0 ?573 741 72
0 722 720 720 7 30 588 68 0 742 722 586 0 +.031 -.214 -.0285 -1 0 11191764361140
7e-30 16 742 53 0 ?600 743 744 588 741 744 7 17 600 0 599 745 597 535 746 742 0
 0 +16 743 564 0 ?480 578 742 586 578 578 7 16 744 567 0 ?745 742 741 588 742 74
1 7 16 741 570 0 ?483 744 574 588 744 742 7 17 483 0 599 747 745 481 748 741 0 5
95 +15 599 82 0 600 749 0 17 747 0 599 750 483 493 595 594 0 751 -17 745 0 599 4
83 600 533 537 744 0 0 +17 748 0 675 697 752 533 483 741 0 745 -17 595 0 753 754
 751 481 747 594 0 752 +15 753 80 0 754 755 0 17 754 0 753 480 595 529 752 578 0
 0 +17 751 0 753 595 756 493 738 736 0 0 -17 752 0 675 748 676 481 754 578 0 0 -
15 675 598 0 748 757 0 17 676 0 675 752 667 529 427 758 0 759 +16 578 49 0 ?754
 572 743 586 743 743 7 17 427 0 418 424 419 531 676 758 0 428 -16 758 602 0 ?676
 760 761 414 761 760 7 17 759 0 685 687 584 529 480 743 0 754 -15 685 108 0 759
 762 0 17 687 0 685 500 759 19 419 761 0 673 +17 584 0 685 759 559 478 581 580 0
 0 -17 480 0 753 763 754 478 759 743 0 583 +17 763 0 753 756 480 490 583 591 0 7
64 -17 583 0 575 581 764 478 763 591 0 584 +17 764 0 575 583 765 490 517 592 0 0
 -17 765 0 575 764 766 508 767 740 0 625 -17 517 0 768 448 492 508 764 592 0 765
 +15 768 339 0 457 769 0 17 448 0 768 770 517 446 603 598 0 771 -17 492 0 768 51
7 457 490 756 734 0 763 +17 457 0 768 492 772 455 610 604 0 756 -17 756 0 753 75
1 763 455 492 734 0 738 -16 734 305 0 ?492 736 731 732 736 736 7 17 738 0 773 44
2 495 455 751 736 0 774 +15 773 349 0 460 775 0 17 442 0 773 672 738 440 774 611
 0 669 -17 495 0 773 738 460 493 750 730 0 747 +17 774 0 607 610 776 455 442 611
 0 0 +15 607 475 0 614 777 0 17 610 0 607 609 774 518 457 604 0 0 +17 776 0 607
 774 778 440 779 626 0 0 +16 611 343 0 ?774 780 604 605 604 780 7 16 780 348 0 ?
778 781 611 605 611 781 7 17 778 0 607 776 782 521 460 780 0 0 +16 781 353 0 ?78
3 784 780 605 780 784 7 17 783 0 607 782 785 461 439 781 0 0 +16 784 358 0 ?786
 622 781 605 781 622 7 17 786 0 607 785 787 524 466 784 0 0 +16 622 363 0 ?787 5
70 784 605 784 616 7 17 787 0 607 786 618 464 451 622 0 0 +16 570 596 0 ?559 761
 622 414 561 761 7 17 559 0 685 584 686 432 420 570 0 581 +16 761 597 0 ?687 758
 570 414 570 758 7 17 686 0 685 559 500 527 788 682 0 0 +17 420 0 418 416 436 52
7 559 570 0 421 -17 421 0 789 549 423 527 416 422 0 790 +15 789 734 0 421 791 0
 17 549 0 789 566 421 547 790 680 0 562 +17 423 0 789 421 428 19 666 674 0 687 +
16 422 671 0 ?421 429 554 414 429 554 7 17 790 0 792 788 568 527 549 680 0 686 -
15 792 199 0 788 661 0 17 788 0 792 793 790 498 686 682 0 0 -17 568 0 792 790 79
4 547 472 677 0 0 -16 680 573 0 ?549 682 677 681 682 677 7 16 682 160 0 ?686 719
 680 681 677 680 7 30 681 218 0 682 678 795 0 +.03 -.214 .0275 1 0 -115648231731
7872e-31 30 795 217 0 796 681 726 0 +.03 .214 .0275 0 -1 0 16 796 151 0 ?794 723
 797 795 0 0 7 30 726 216 0 723 795 724 0 +-.03 .214 .0275 0 -1 0 16 723 163 0 ?
688 671 796 726 0 0 7 17 688 0 659 673 469 498 793 723 0 788 +17 673 0 659 666 6
88 19 500 679 0 0 -17 469 0 659 688 520 467 772 798 0 793 +17 793 0 792 771 788
 467 688 723 0 770 -17 771 0 792 799 793 446 770 797 0 800 +17 770 0 768 772 448
 467 771 797 0 0 -17 772 0 768 457 770 518 469 798 0 801 -16 797 173 0 ?771 796
 802 703 803 802 7 16 802 320 0 ?799 797 803 703 797 803 7 30 703 222 0 797 804
 695 0 +.03 .214 .0275 1 0 -1156482317317872e-31 16 803 323 0 ?510 802 805 703 8
02 797 7 17 510 0 792 794 799 487 445 803 0 806 +16 805 170 0 ?669 803 807 804 7
98 807 7 17 669 0 659 520 665 440 672 805 0 808 +16 807 326 0 ?520 805 798 804 8
05 798 7 30 804 223 0 805 809 703 0 +-.03 .214 -.0275 1261617073437678e-31 0 1 1
6 798 329 0 ?469 807 810 804 807 805 7 16 810 167 0 ?714 798 811 809 812 811 7 1
7 714 0 711 523 712 437 716 810 0 813 +16 811 332 0 ?523 810 812 809 810 812 7 3
0 809 224 0 810 613 804 0 +.03 .214 -.0275 -1 0 1156482317317872e-31 16 812 335
 0 ?513 811 814 809 811 810 7 17 513 0 711 670 523 511 815 812 0 665 +16 814 164
 0 ?816 812 817 613 719 817 7 17 816 0 708 526 806 449 818 814 0 819 +16 817 314
 0 ?526 814 719 613 814 719 7 30 613 225 0 814 605 809 0 +.03 .214 -.0275 -12616
17073437678e-31 0 -1 16 719 317 0 ?515 817 682 613 817 814 7 17 526 0 708 515 81
6 524 819 817 0 718 +17 819 0 820 821 822 449 526 817 0 618 -17 718 0 823 466 71
6 524 515 719 0 822 -15 823 359 0 466 824 0 17 466 0 823 497 718 464 786 784 0 8
25 -17 716 0 823 718 439 501 714 810 0 0 -17 822 0 820 819 813 524 785 621 0 786
 -15 820 469 0 819 826 827 17 813 0 820 822 779 437 523 811 0 785 -17 785 0 607
 783 786 437 822 621 0 0 +16 621 398 0 ?785 616 828 605 616 828 7 16 828 404 0 ?
782 621 626 605 621 626 7 17 782 0 607 778 783 458 829 828 0 0 +16 626 410 0 ?77
6 828 623 605 828 623 7 17 829 0 830 831 831 461 782 828 0 783 -15 830 447 0 829
 832 0 17 831 0 830 829 829 458 463 735 0 782 +17 463 0 599 601 750 461 831 735
 0 733 -16 735 299 0 ?831 731 730 728 731 730 7 16 730 302 0 ?495 735 727 728 73
5 731 7 17 601 0 599 597 463 477 733 731 0 602 -17 750 0 599 463 747 458 495 730
 0 831 -17 733 0 823 439 497 461 601 731 0 829 +17 439 0 823 716 733 437 783 781
 0 714 -17 497 0 823 733 466 477 825 585 0 601 +17 825 0 833 834 602 464 497 585
 0 729 -16 585 296 0 ?497 727 580 725 727 727 7 15 833 84 0 573 406 0 17 834 0 8
33 577 825 473 729 727 0 0 -17 602 0 833 825 486 477 597 596 0 0 -17 729 0 835 4
51 489 464 834 727 0 787 +15 835 369 0 454 836 0 17 451 0 835 818 729 449 787 62
2 0 816 -17 489 0 835 729 454 473 766 739 0 576 +17 454 0 835 489 445 452 614 60
6 0 766 -17 766 0 575 765 576 452 489 739 0 767 -16 739 311 0 ?489 740 736 737 7
40 592 7 17 576 0 575 766 476 473 577 589 0 834 -17 577 0 833 573 834 474 576 58
9 0 571 +17 573 0 833 486 577 541 571 574 0 0 +17 486 0 833 602 573 484 706 720
 0 746 +17 706 0 692 704 746 541 486 720 0 573 -17 746 0 692 706 693 484 600 742
 0 597 -17 693 0 692 746 689 535 540 837 0 600 +17 540 0 418 431 838 538 693 837
 0 839 -16 837 612 0 ?693 413 760 414 760 413 7 16 413 617 0 ?704 18 837 414 837
 18 7 16 760 607 0 ?697 837 758 414 758 837 7 17 697 0 675 504 748 417 426 760 0
 698 +17 426 0 418 838 424 533 697 760 0 840 -17 698 0 711 713 670 417 504 691 0
 0 -17 670 0 711 698 513 502 665 671 0 664 +17 838 0 418 540 426 535 840 841 0 6
93 -17 840 0 842 537 537 533 838 841 0 748 +15 842 709 0 537 843 0 17 537 0 842
 840 840 535 745 744 0 838 -16 841 636 0 ?840 844 429 414 844 429 7 16 844 679 0
 ?839 415 841 414 415 841 7 16 429 683 0 ?428 841 422 414 841 422 7 17 428 0 789
 423 430 531 424 429 0 666 +17 430 0 789 428 839 417 713 690 0 697 +17 839 0 789
 430 702 538 431 844 0 713 +17 702 0 789 839 566 425 709 700 0 704 +17 431 0 418
 543 540 425 839 844 0 702 -17 543 0 418 546 431 541 704 413 0 412 -17 546 0 418
 562 543 544 412 18 0 566 -17 412 0 567 571 699 541 546 18 0 706 +17 566 0 789 7
02 549 544 562 415 0 709 +16 415 675 0 ?566 561 844 414 18 844 7 17 709 0 708 70
1 705 544 702 700 0 699 -17 701 0 708 806 709 470 699 696 0 794 -17 806 0 708 81
6 701 487 794 796 0 818 -17 794 0 792 568 510 470 806 796 0 0 +17 818 0 835 445
 451 487 816 814 0 0 -17 445 0 835 454 818 443 510 803 0 799 -17 799 0 792 510 7
71 443 800 802 0 821 +17 800 0 820 801 821 446 799 802 0 609 -17 821 0 820 800 8
19 443 618 616 0 614 -17 618 0 607 787 614 449 821 616 0 0 +17 801 0 820 808 800
 518 609 623 0 610 -17 609 0 607 603 610 446 801 623 0 0 +17 808 0 820 779 801 4
40 520 807 0 776 -17 779 0 820 813 808 521 776 626 0 778 -17 520 0 659 469 669 5
18 808 807 0 772 +14 843 707 845 ?565 556 842 13 846 +791 556 565 556 411 81 1 8
45 1016 148 843 847 0 660 848 849 14 565 722 848 ?850 843 851 13 852 +0 0 850 84
3 411 14 556 704 853 ?843 854 552 13 846 +843 791 843 854 411 50 846 743 0 791 8
55 852 0 +0 -.214 0 0 1 0 0 0 1 14 791 731 856 ?857 850 858 13 846 +556 843 857
 850 411 13 411 29 0 0 0 0 0 0 17 404 14 404 629 859 ?707 0 567 13 860 +707 762
 707 0 411 81 1 859 1020 148 404 861 0 856 862 863 14 707 619 862 ?757 404 692 1
3 860 +757 404 757 404 411 50 860 65 0 404 864 865 0 +0 -.214 0 0 -1 0 0 0 -1 14
 762 599 866 ?836 757 685 13 860 +404 757 836 757 411 81 1 866 1022 148 762 867
 0 862 868 869 14 836 370 868 ?824 762 835 13 864 -824 769 824 762 411 14 757 60
9 870 ?762 707 675 13 860 +762 707 762 707 411 81 1 870 1024 148 757 871 0 868 8
72 873 81 1 871 925 196 757 0 870 874 867 875 81 1 868 1023 148 836 876 0 866 87
0 877 81 1 872 1025 148 854 878 0 870 879 880 82 1 873 829161600 14 854 476 872
 ?556 777 630 13 881 +0 0 556 777 411 81 1 878 944 196 854 0 872 882 883 884 81
 1 879 1026 148 777 882 0 872 885 886 82 1 880 784334975 14 777 471 879 ?854 826
 887 13 888 -0 0 854 826 411 81 1 882 943 196 777 0 879 889 878 890 81 1 885 102
7 148 826 889 0 879 891 892 82 1 886 780206207 14 826 467 885 ?777 893 820 13 89
4 -832 895 777 893 411 81 1 889 942 196 826 0 885 896 882 897 81 1 891 1028 148
 893 896 0 885 898 899 82 1 892 786038911 14 893 463 891 ?826 895 900 13 901 +0
 0 826 895 411 81 1 896 941 196 893 0 891 902 889 903 81 1 898 1029 148 895 902
 0 891 904 905 82 1 899 786563199 14 895 448 898 ?893 832 906 13 894 -826 832 89
3 832 411 81 1 902 940 196 895 0 898 907 896 908 81 1 904 1030 148 832 907 0 898
 909 910 82 1 905 803668095 14 832 445 904 ?895 661 830 13 894 -895 826 895 661
 411 81 1 907 939 196 832 0 904 911 902 912 81 1 909 1031 148 769 913 0 904 914
 915 82 1 910 804061311 14 769 340 909 ?406 775 768 13 864 -836 775 406 775 411
 81 1 913 930 196 769 0 909 916 917 918 81 1 914 1032 148 775 916 0 909 919 920
 82 1 915 792789119 14 775 350 914 ?769 824 773 13 864 -769 824 769 824 411 81 1
 916 929 196 775 0 914 921 913 922 81 1 919 1033 148 824 921 0 914 923 924 82 1
 920 793706623 14 824 360 919 ?775 836 823 13 864 -775 836 775 836 411 81 1 921
 928 196 824 0 919 876 916 925 81 1 923 1034 148 717 926 0 919 927 928 82 1 924
 794624127 14 717 184 923 ?662 582 929 13 930 +0 0 662 582 411 81 1 926 935 196
 717 0 923 931 932 933 81 1 927 1035 148 662 932 0 923 934 935 82 1 928 51911078
7 14 662 188 927 ?658 717 711 13 936 +0 0 658 717 411 81 1 932 936 196 662 0 927
 926 937 938 81 1 934 1036 148 661 911 0 927 939 940 82 1 935 518848640 14 661 1
96 934 ?832 658 792 13 941 +0 0 832 658 411 81 1 911 938 196 661 0 934 937 907 9
42 81 1 939 1037 148 582 931 0 934 943 944 82 1 940 518324352 14 582 79 939 ?717
 755 575 13 865 -0 0 717 755 411 81 1 931 934 196 582 0 939 945 926 946 81 1 943
 1038 148 755 945 0 939 947 948 82 1 944 530055296 14 755 81 943 ?582 749 650 13
 949 -0 0 582 749 411 81 1 945 933 196 755 0 943 950 931 951 81 1 947 1039 148 7
49 950 0 943 952 953 82 1 948 530317443 14 749 83 947 ?755 406 599 13 407 -0 0 7
55 406 411 81 1 950 932 196 749 0 947 917 945 954 81 1 952 1040 148 406 917 0 94
7 955 956 82 1 953 530579584 14 406 85 952 ?749 769 957 13 14 -0 0 749 769 411 8
1 1 917 931 196 406 0 952 913 950 958 81 1 955 1041 148 857 959 0 952 960 961 82
 1 956 530841731 14 857 735 955 ?655 791 962 13 963 -0 0 655 791 411 81 1 959 95
0 196 857 0 955 964 965 966 81 1 960 1042 148 850 967 0 955 968 969 82 1 961 819
855488 14 850 727 960 ?791 565 970 13 855 -0 0 791 565 411 81 1 967 948 196 850
 0 960 971 964 972 81 1 968 1043 148 655 965 0 960 973 974 82 1 969 813891712 14
 655 866 968 ?975 857 653 13 976 -975 975 975 857 411 81 1 965 951 196 655 0 968
 959 977 978 81 1 973 1044 148 975 977 0 968 0 979 82 1 974 -1982791549 14 975 8
61 973 ?0 655 980 13 976 -655 655 0 655 411 81 1 977 952 196 975 0 973 965 0 981
 82 1 979 -1980235645 83 3 981 .792156862745098 .819607843137255 .93333333333333
3 15 980 864 0 644 975 982 51 976 879 0 655 0 963 0 +-.031 0 377378440387937e-32
 1 0 -1217349807703022e-31 .015 -1217349807703022e-31 0 -1 51 963 745 0 857 976
 855 0 +0 -.215 0 0 1 0 .015 0 0 1 50 855 744 0 850 963 846 0 +0 -.215 0 0 1 0 0
 0 1 17 644 0 980 644 644 0 983 640 0 0 +15 982 865 0 647 975 0 17 647 0 982 647
 647 0 984 645 0 0 +17 984 0 957 984 984 0 647 645 0 0 -15 957 841 0 984 406 833
 17 983 0 929 983 983 0 644 640 0 0 -15 929 829 0 983 717 708 83 3 978 .79215686
2745098 .819607843137255 .933333333333333 81 1 971 947 196 565 0 848 847 967 985
 81 1 964 949 196 791 0 856 967 959 986 83 3 972 .792156862745098 .8196078431372
55 .933333333333333 81 1 856 1019 148 791 964 0 853 859 987 83 3 986 .7921568627
45098 .819607843137255 .933333333333333 81 1 853 1018 148 556 883 0 848 856 988
 82 1 987 815333504 81 1 883 945 196 556 0 853 878 847 989 81 1 848 1017 148 565
 971 0 845 853 990 82 1 988 839516288 82 1 990 815857792 81 1 847 946 196 843 0
 845 883 971 991 83 3 989 .792156862745098 .819607843137255 .933333333333333 83
 3 991 .792156862745098 .819607843137255 .933333333333333 83 3 985 .792156862745
098 .819607843137255 .933333333333333 15 970 729 0 642 850 992 17 642 0 970 642
 642 0 993 560 0 0 +15 992 730 0 994 850 0 17 994 0 992 994 994 0 636 569 0 0 -1
7 636 0 851 636 636 0 994 569 0 0 +15 851 725 0 636 565 418 17 993 0 962 993 993
 0 642 560 0 0 -15 962 738 0 993 857 995 15 995 739 0 639 857 0 17 639 0 995 639
 639 0 996 637 0 0 +17 996 0 858 996 996 0 639 637 0 0 -15 858 733 0 996 791 789
 83 3 966 .792156862745098 .819607843137255 .933333333333333 83 3 958 .792156862
745098 .819607843137255 .933333333333333 83 3 954 .792156862745098 .819607843137
255 .933333333333333 50 407 92 0 749 949 14 0 +.031 .214 -.0285 111917643611407e
-30 0 1 1 0 -111917643611407e-30 50 949 91 0 755 865 407 0 +-.031 .214 -.0285 1
 0 -1217349807703022e-31 -1217349807703022e-31 0 -1 50 865 90 0 582 860 949 0 +.
031 .214 .0285 -111917643611407e-30 0 -1 -1 0 111917643611407e-30 83 3 951 .7921
56862745098 .819607843137255 .933333333333333 15 650 834 0 649 755 753 83 3 946
 .792156862745098 .819607843137255 .933333333333333 81 1 937 937 196 658 0 660 9
32 911 997 83 3 942 .792156862745098 .819607843137255 .933333333333333 81 1 660
 1015 148 658 937 0 0 845 998 83 3 997 .792156862745098 .819607843137255 .933333
333333333 82 1 998 518586499 50 941 211 0 661 888 663 0 +.03 .214 .0275 -1156482
317317872e-31 0 -1 -1 0 1156482317317872e-31 51 888 483 0 777 894 941 0 -0 .215
 0 0 -1 0 .031 0 0 -1 50 663 210 0 658 941 936 0 +-.03 .214 -.0275 1 0 -12616170
73437678e-31 -1261617073437678e-31 0 -1 50 936 209 0 662 663 930 0 +.03 .214 -.0
275 1156482317317872e-31 0 1 1 0 -1156482317317872e-31 50 930 208 0 717 936 864
 0 +.03 .214 -.0275 -1 0 1261617073437678e-31 1261617073437678e-31 0 1 50 864 2
 0 836 930 860 0 +0 .214 0 0 -1 0 0 0 -1 50 894 484 0 826 901 888 0 +0 .214 0 0
 1 0 0 0 1 50 901 485 0 893 881 894 0 +0 .215 0 0 1 0 0 0 1 51 881 486 0 854 852
 901 0 -0 .215 0 0 -1 0 .015 0 0 -1 51 852 742 0 565 846 881 0 +0 -.215 0 0 1 0
 .031 0 0 1 83 3 938 .792156862745098 .819607843137255 .933333333333333 83 3 933
 .792156862745098 .819607843137255 .933333333333333 81 1 876 927 196 836 0 868 8
67 921 999 83 3 925 .792156862745098 .819607843137255 .933333333333333 81 1 867
 926 196 762 0 866 871 876 1000 83 3 999 .792156862745098 .819607843137255 .9333
33333333333 83 3 1000 .792156862745098 .819607843137255 .933333333333333 83 3 92
2 .792156862745098 .819607843137255 .933333333333333 83 3 918 .792156862745098 .
819607843137255 .933333333333333 83 3 912 .792156862745098 .819607843137255 .933
333333333333 83 3 908 .792156862745098 .819607843137255 .933333333333333 15 906
 450 0 625 895 0 17 625 0 906 767 767 508 608 617 0 603 -17 767 0 906 625 625 45
2 765 740 0 608 +16 740 308 0 ?767 592 739 737 592 739 7 83 3 903 .7921568627450
98 .819607843137255 .933333333333333 15 900 465 0 619 893 1001 17 619 0 900 619
 619 0 1002 615 0 0 +15 1001 466 0 631 893 0 17 631 0 1001 631 631 0 627 624 0 0
 -17 1002 0 887 1002 1002 0 619 615 0 0 -15 887 474 0 1002 777 607 83 3 897 .792
156862745098 .819607843137255 .933333333333333 83 3 890 .792156862745098 .819607
843137255 .933333333333333 83 3 884 .792156862745098 .819607843137255 .933333333
333333 15 630 479 0 627 854 1003 15 1003 480 0 1004 854 0 17 1004 0 1003 1004 10
04 0 632 628 0 0 -17 632 0 827 632 632 0 1004 628 0 0 +15 827 470 0 632 826 0 82
 1 877 795541631 81 1 874 924 196 707 0 862 861 871 1005 83 3 875 .7921568627450
98 .819607843137255 .933333333333333 81 1 862 1021 148 707 874 0 859 866 1006 81
 1 861 923 196 404 0 859 0 874 1007 83 3 1005 .792156862745098 .819607843137255
 .933333333333333 83 3 1007 .792156862745098 .819607843137255 .933333333333333 8
2 1 1006 830079104 82 1 869 828244096 82 1 863 830996608 82 1 849 839123072 17 5
23 0 711 513 714 521 813 811 0 815 +17 815 0 773 460 672 521 513 812 0 779 -17 4
60 0 773 495 815 458 778 780 0 750 -17 672 0 773 815 442 511 669 805 0 0 -17 472
 0 567 699 563 470 568 677 0 701 +17 419 0 418 427 416 529 687 761 0 676 -15 656
 870 0 651 655 0 17 651 0 656 651 651 0 649 648 0 0 -19 405 95 0 7 0 17 13 S74 2
0 403 3 0 0 973 977 10 0 0 0 0 0 0 0 0 0 0 0 0 0 0 0 0 0 74 20 6 1 0 0 2 0 0 0 0
 0 0 0 0 0 0 0 0 0 0 0 0 0 0 0 80 2 5 1008 1009 9000 0 0 0 0 3 5 0 0 0 TFFFFFFFF
FFFFF9 1 79 18 1009 MULTI_BODY_ID_20011 0 
